<?xml version="1.0" encoding="UTF-8" standalone="no"?>
<!DOCTYPE svg PUBLIC "-//W3C//DTD SVG 1.1//EN"
 "http://www.w3.org/Graphics/SVG/1.1/DTD/svg11.dtd">
<!-- Generated by graphviz version 2.38.0 (20140413.2041)
 -->
<!-- Title: models_diagram Pages: 1 -->
<svg width="4750pt" height="446pt"
 viewBox="0.00 0.00 4750.17 446.00" xmlns="http://www.w3.org/2000/svg" xmlns:xlink="http://www.w3.org/1999/xlink">
<g id="graph0" class="graph" transform="scale(1 1) rotate(0) translate(4 442)">
<title>models_diagram</title>
<polygon fill="none" stroke="none" points="-4,4 -4,-442 4746.17,-442 4746.17,4 -4,4"/>
<!-- _diagram_info -->
<g id="node1" class="node"><title>_diagram_info</title>
<text text-anchor="start" x="1099.72" y="-423.6" font-family="Times,serif" font-size="13.00">Models diagram</text>
<text text-anchor="start" x="1099.72" y="-409.6" font-family="Times,serif" font-size="13.00">Date: Nov 28 2017 &#45; 15:29</text>
<text text-anchor="start" x="1099.72" y="-395.6" font-family="Times,serif" font-size="13.00">Migration version: 20171117071801</text>
<text text-anchor="start" x="1099.72" y="-381.6" font-family="Times,serif" font-size="13.00">Generated by RailRoady 1.5.3</text>
<text text-anchor="start" x="1099.72" y="-367.6" font-family="Times,serif" font-size="13.00">http://railroady.prestonlee.com</text>
</g>
<!-- AlarmType -->
<g id="node2" class="node"><title>AlarmType</title>
<ellipse fill="none" stroke="black" cx="1428.22" cy="-399" rx="61.99" ry="18"/>
<text text-anchor="middle" x="1428.22" y="-395.3" font-family="Times,serif" font-size="14.00">AlarmType</text>
</g>
<!-- Cncclient -->
<g id="node3" class="node"><title>Cncclient</title>
<ellipse fill="none" stroke="black" cx="3170.22" cy="-234" rx="55.7903" ry="18"/>
<text text-anchor="middle" x="3170.22" y="-230.3" font-family="Times,serif" font-size="14.00">Cncclient</text>
</g>
<!-- JobList -->
<g id="node32" class="node"><title>JobList</title>
<ellipse fill="none" stroke="black" cx="3306.22" cy="-162" rx="44.393" ry="18"/>
<text text-anchor="middle" x="3306.22" y="-158.3" font-family="Times,serif" font-size="14.00">JobList</text>
</g>
<!-- Cncclient&#45;&gt;JobList -->
<g id="edge2" class="edge"><title>Cncclient&#45;&gt;JobList</title>
<path fill="none" stroke="#3ca81a" d="M3205.98,-214.596C3225.9,-204.342 3250.63,-191.615 3270.54,-181.367"/>
<ellipse fill="none" stroke="#3ca81a" cx="3202.29" cy="-216.495" rx="4.00002" ry="4.00002"/>
<polygon fill="#3ca81a" stroke="#3ca81a" points="3270.7,-181.28 3281.66,-180.705 3275.15,-178.992 3279.6,-176.704 3279.6,-176.704 3279.6,-176.704 3275.15,-178.992 3277.54,-172.703 3270.7,-181.28 3270.7,-181.28"/>
</g>
<!-- DeliveryList -->
<g id="node48" class="node"><title>DeliveryList</title>
<ellipse fill="none" stroke="black" cx="3176.22" cy="-162" rx="67.6881" ry="18"/>
<text text-anchor="middle" x="3176.22" y="-158.3" font-family="Times,serif" font-size="14.00">DeliveryList</text>
</g>
<!-- Cncclient&#45;&gt;DeliveryList -->
<g id="edge3" class="edge"><title>Cncclient&#45;&gt;DeliveryList</title>
<path fill="none" stroke="#59f97a" d="M3172.39,-207.64C3172.87,-202.063 3173.38,-196.132 3173.87,-190.476"/>
<ellipse fill="none" stroke="#59f97a" cx="3172.05" cy="-211.711" rx="4" ry="4"/>
<polygon fill="#59f97a" stroke="#59f97a" points="3173.9,-190.068 3179.24,-180.489 3174.33,-185.086 3174.75,-180.104 3174.75,-180.104 3174.75,-180.104 3174.33,-185.086 3170.27,-179.72 3173.9,-190.068 3173.9,-190.068"/>
</g>
<!-- Cncjob -->
<g id="node49" class="node"><title>Cncjob</title>
<ellipse fill="none" stroke="black" cx="2795.22" cy="-162" rx="43.5923" ry="18"/>
<text text-anchor="middle" x="2795.22" y="-158.3" font-family="Times,serif" font-size="14.00">Cncjob</text>
</g>
<!-- Cncclient&#45;&gt;Cncjob -->
<g id="edge1" class="edge"><title>Cncclient&#45;&gt;Cncjob</title>
<path fill="none" stroke="#247b40" d="M3110.41,-225.978C3045.15,-217.671 2937.89,-202.12 2847.22,-180 2843.84,-179.176 2840.37,-178.24 2836.89,-177.241"/>
<ellipse fill="none" stroke="#247b40" cx="3114.58" cy="-226.504" rx="4.00001" ry="4.00001"/>
<polygon fill="#247b40" stroke="#247b40" points="2836.75,-177.197 2828.48,-169.991 2831.96,-175.747 2827.18,-174.298 2827.18,-174.298 2827.18,-174.298 2831.96,-175.747 2825.87,-178.605 2836.75,-177.197 2836.75,-177.197"/>
</g>
<!-- Planstatus -->
<g id="node4" class="node"><title>Planstatus</title>
<ellipse fill="none" stroke="black" cx="2916.22" cy="-162" rx="59.5901" ry="18"/>
<text text-anchor="middle" x="2916.22" y="-158.3" font-family="Times,serif" font-size="14.00">Planstatus</text>
</g>
<!-- Cncoperation -->
<g id="node35" class="node"><title>Cncoperation</title>
<ellipse fill="none" stroke="black" cx="2833.22" cy="-90" rx="73.387" ry="18"/>
<text text-anchor="middle" x="2833.22" y="-86.3" font-family="Times,serif" font-size="14.00">Cncoperation</text>
</g>
<!-- Planstatus&#45;&gt;Cncoperation -->
<g id="edge4" class="edge"><title>Planstatus&#45;&gt;Cncoperation</title>
<path fill="none" stroke="#d228d3" d="M2890.78,-139.547C2881.2,-131.461 2870.26,-122.235 2860.51,-114.013"/>
<ellipse fill="none" stroke="#d228d3" cx="2893.91" cy="-142.186" rx="4.00002" ry="4.00002"/>
<polygon fill="#d228d3" stroke="#d228d3" points="2860.3,-113.837 2855.56,-103.95 2856.48,-110.613 2852.65,-107.39 2852.65,-107.39 2852.65,-107.39 2856.48,-110.613 2849.75,-110.83 2860.3,-113.837 2860.3,-113.837"/>
</g>
<!-- Operatorworkingdetail -->
<g id="node5" class="node"><title>Operatorworkingdetail</title>
<ellipse fill="none" stroke="black" cx="839.221" cy="-18" rx="116.979" ry="18"/>
<text text-anchor="middle" x="839.221" y="-14.3" font-family="Times,serif" font-size="14.00">Operatorworkingdetail</text>
</g>
<!-- Approval -->
<g id="node6" class="node"><title>Approval</title>
<ellipse fill="none" stroke="black" cx="68.2209" cy="-234" rx="52.7911" ry="18"/>
<text text-anchor="middle" x="68.2209" y="-230.3" font-family="Times,serif" font-size="14.00">Approval</text>
</g>
<!-- User -->
<g id="node12" class="node"><title>User</title>
<ellipse fill="none" stroke="black" cx="142.221" cy="-162" rx="32.4942" ry="18"/>
<text text-anchor="middle" x="142.221" y="-158.3" font-family="Times,serif" font-size="14.00">User</text>
</g>
<!-- Approval&#45;&gt;User -->
<g id="edge5" class="edge"><title>Approval&#45;&gt;User</title>
<path fill="none" stroke="#91c544" d="M91.4192,-211.056C100.154,-202.793 110.086,-193.398 118.837,-185.12"/>
<ellipse fill="none" stroke="#91c544" cx="88.2898" cy="-214.016" rx="4.00002" ry="4.00002"/>
<polygon fill="#91c544" stroke="#91c544" points="118.899,-185.061 129.256,-181.458 122.532,-181.625 126.164,-178.189 126.164,-178.189 126.164,-178.189 122.532,-181.625 123.072,-174.92 118.899,-185.061 118.899,-185.061"/>
</g>
<!-- Page -->
<g id="node7" class="node"><title>Page</title>
<ellipse fill="none" stroke="black" cx="172.221" cy="-234" rx="33.2948" ry="18"/>
<text text-anchor="middle" x="172.221" y="-230.3" font-family="Times,serif" font-size="14.00">Page</text>
</g>
<!-- Menuconfiguration -->
<g id="node24" class="node"><title>Menuconfiguration</title>
<ellipse fill="none" stroke="black" cx="292.221" cy="-162" rx="99.3824" ry="18"/>
<text text-anchor="middle" x="292.221" y="-158.3" font-family="Times,serif" font-size="14.00">Menuconfiguration</text>
</g>
<!-- Page&#45;&gt;Menuconfiguration -->
<g id="edge6" class="edge"><title>Page&#45;&gt;Menuconfiguration</title>
<path fill="none" stroke="#0ccc23" d="M200.994,-216.216C217.338,-206.681 237.969,-194.647 255.476,-184.435"/>
<ellipse fill="none" stroke="#0ccc23" cx="197.407" cy="-218.308" rx="4.00002" ry="4.00002"/>
<polygon fill="#0ccc23" stroke="#0ccc23" points="255.668,-184.322 266.574,-183.171 259.987,-181.803 264.306,-179.284 264.306,-179.284 264.306,-179.284 259.987,-181.803 262.039,-175.397 255.668,-184.322 255.668,-184.322"/>
</g>
<!-- Shift -->
<g id="node8" class="node"><title>Shift</title>
<ellipse fill="none" stroke="black" cx="619.221" cy="-234" rx="32.4942" ry="18"/>
<text text-anchor="middle" x="619.221" y="-230.3" font-family="Times,serif" font-size="14.00">Shift</text>
</g>
<!-- Shifttransaction -->
<g id="node43" class="node"><title>Shifttransaction</title>
<ellipse fill="none" stroke="black" cx="495.221" cy="-162" rx="85.5853" ry="18"/>
<text text-anchor="middle" x="495.221" y="-158.3" font-family="Times,serif" font-size="14.00">Shifttransaction</text>
</g>
<!-- Shift&#45;&gt;Shifttransaction -->
<g id="edge7" class="edge"><title>Shift&#45;&gt;Shifttransaction</title>
<path fill="none" stroke="#ede83d" d="M590.289,-216.667C573.105,-206.967 551.132,-194.563 532.639,-184.123"/>
<ellipse fill="none" stroke="#ede83d" cx="593.854" cy="-218.68" rx="4.00002" ry="4.00002"/>
<polygon fill="#ede83d" stroke="#ede83d" points="532.585,-184.093 526.089,-175.258 528.231,-181.635 523.877,-179.177 523.877,-179.177 523.877,-179.177 528.231,-181.635 521.665,-183.096 532.585,-184.093 532.585,-184.093"/>
</g>
<!-- MachineSeriesNo -->
<g id="node9" class="node"><title>MachineSeriesNo</title>
<ellipse fill="none" stroke="black" cx="2253.22" cy="-399" rx="93.6835" ry="18"/>
<text text-anchor="middle" x="2253.22" y="-395.3" font-family="Times,serif" font-size="14.00">MachineSeriesNo</text>
</g>
<!-- AlarmCode -->
<g id="node18" class="node"><title>AlarmCode</title>
<ellipse fill="none" stroke="black" cx="2253.22" cy="-306" rx="63.0888" ry="18"/>
<text text-anchor="middle" x="2253.22" y="-302.3" font-family="Times,serif" font-size="14.00">AlarmCode</text>
</g>
<!-- MachineSeriesNo&#45;&gt;AlarmCode -->
<g id="edge8" class="edge"><title>MachineSeriesNo&#45;&gt;AlarmCode</title>
<path fill="none" stroke="#26e7c7" d="M2253.22,-370.549C2253.22,-359.083 2253.22,-345.792 2253.22,-334.339"/>
<polygon fill="#26e7c7" stroke="#26e7c7" points="2253.22,-370.884 2248.72,-380.884 2253.22,-375.884 2253.22,-380.884 2253.22,-380.884 2253.22,-380.884 2253.22,-375.884 2257.72,-380.884 2253.22,-370.884 2253.22,-370.884"/>
<polygon fill="#26e7c7" stroke="#26e7c7" points="2253.22,-334.04 2257.72,-324.04 2253.22,-329.04 2253.22,-324.04 2253.22,-324.04 2253.22,-324.04 2253.22,-329.04 2248.72,-324.04 2253.22,-334.04 2253.22,-334.04"/>
</g>
<!-- Companytype -->
<g id="node10" class="node"><title>Companytype</title>
<ellipse fill="none" stroke="black" cx="1583.22" cy="-399" rx="75.2868" ry="18"/>
<text text-anchor="middle" x="1583.22" y="-395.3" font-family="Times,serif" font-size="14.00">Companytype</text>
</g>
<!-- Companytype&#45;&gt;Page -->
<g id="edge10" class="edge"><title>Companytype&#45;&gt;Page</title>
<path fill="none" stroke="#4d6911" d="M1547.59,-378.638C1533.01,-371.582 1515.71,-364.29 1499.22,-360 946.701,-216.265 776.911,-374.147 219.221,-252 215.327,-251.147 211.317,-250.053 207.359,-248.832"/>
<ellipse fill="none" stroke="#4d6911" cx="1551.37" cy="-380.512" rx="4.00002" ry="4.00002"/>
<polygon fill="#4d6911" stroke="#4d6911" points="207.2,-248.778 199.15,-241.332 202.459,-247.188 197.719,-245.598 197.719,-245.598 197.719,-245.598 202.459,-247.188 196.288,-249.865 207.2,-248.778 207.2,-248.778"/>
</g>
<!-- Tenant -->
<g id="node45" class="node"><title>Tenant</title>
<ellipse fill="none" stroke="black" cx="2098.22" cy="-306" rx="42.4939" ry="18"/>
<text text-anchor="middle" x="2098.22" y="-302.3" font-family="Times,serif" font-size="14.00">Tenant</text>
</g>
<!-- Companytype&#45;&gt;Tenant -->
<g id="edge9" class="edge"><title>Companytype&#45;&gt;Tenant</title>
<path fill="none" stroke="#4e5d71" d="M1649.79,-386.237C1755,-367.647 1957.24,-331.911 2049.81,-315.554"/>
<ellipse fill="none" stroke="#4e5d71" cx="1645.74" cy="-386.954" rx="4.00001" ry="4.00001"/>
<polygon fill="#4e5d71" stroke="#4e5d71" points="2049.9,-315.538 2060.53,-318.229 2054.82,-314.668 2059.75,-313.798 2059.75,-313.798 2059.75,-313.798 2054.82,-314.668 2058.97,-309.367 2049.9,-315.538 2049.9,-315.538"/>
</g>
<!-- HourTimelineReport -->
<g id="node11" class="node"><title>HourTimelineReport</title>
<ellipse fill="none" stroke="black" cx="2471.22" cy="-399" rx="106.681" ry="18"/>
<text text-anchor="middle" x="2471.22" y="-395.3" font-family="Times,serif" font-size="14.00">HourTimelineReport</text>
</g>
<!-- User&#45;&gt;Operatorworkingdetail -->
<g id="edge11" class="edge"><title>User&#45;&gt;Operatorworkingdetail</title>
<path fill="none" stroke="#a79ea0" d="M175.001,-147.336C178.101,-146.164 181.21,-145.033 184.221,-144 295.211,-105.932 323.313,-95.7495 438.221,-72 536.485,-51.6904 649.984,-37.5411 731.096,-29.0025"/>
<ellipse fill="none" stroke="#a79ea0" cx="171.1" cy="-148.854" rx="4.00001" ry="4.00001"/>
<polygon fill="#a79ea0" stroke="#a79ea0" points="731.376,-28.9734 741.789,-32.4134 736.349,-28.4555 741.322,-27.9376 741.322,-27.9376 741.322,-27.9376 736.349,-28.4555 740.856,-23.4618 731.376,-28.9734 731.376,-28.9734"/>
</g>
<!-- OneSignal -->
<g id="node56" class="node"><title>OneSignal</title>
<ellipse fill="none" stroke="black" cx="142.221" cy="-90" rx="57.6901" ry="18"/>
<text text-anchor="middle" x="142.221" y="-86.3" font-family="Times,serif" font-size="14.00">OneSignal</text>
</g>
<!-- User&#45;&gt;OneSignal -->
<g id="edge12" class="edge"><title>User&#45;&gt;OneSignal</title>
<path fill="none" stroke="#df7fb4" d="M142.221,-135.64C142.221,-130.063 142.221,-124.132 142.221,-118.476"/>
<ellipse fill="none" stroke="#df7fb4" cx="142.221" cy="-139.697" rx="4" ry="4"/>
<polygon fill="#df7fb4" stroke="#df7fb4" points="142.221,-118.104 146.721,-108.104 142.221,-113.104 142.221,-108.104 142.221,-108.104 142.221,-108.104 142.221,-113.104 137.721,-108.104 142.221,-118.104 142.221,-118.104"/>
</g>
<!-- ShiftTimelineReport -->
<g id="node13" class="node"><title>ShiftTimelineReport</title>
<ellipse fill="none" stroke="black" cx="2700.22" cy="-399" rx="104.782" ry="18"/>
<text text-anchor="middle" x="2700.22" y="-395.3" font-family="Times,serif" font-size="14.00">ShiftTimelineReport</text>
</g>
<!-- OperatorEntryOee -->
<g id="node14" class="node"><title>OperatorEntryOee</title>
<ellipse fill="none" stroke="black" cx="2919.22" cy="-399" rx="96.6831" ry="18"/>
<text text-anchor="middle" x="2919.22" y="-395.3" font-family="Times,serif" font-size="14.00">OperatorEntryOee</text>
</g>
<!-- Material -->
<g id="node15" class="node"><title>Material</title>
<ellipse fill="none" stroke="black" cx="2992.22" cy="-90" rx="50.8918" ry="18"/>
<text text-anchor="middle" x="2992.22" y="-86.3" font-family="Times,serif" font-size="14.00">Material</text>
</g>
<!-- OperatorAllocation -->
<g id="node16" class="node"><title>OperatorAllocation</title>
<ellipse fill="none" stroke="black" cx="736.221" cy="-90" rx="99.3824" ry="18"/>
<text text-anchor="middle" x="736.221" y="-86.3" font-family="Times,serif" font-size="14.00">OperatorAllocation</text>
</g>
<!-- ProblemStatusLog -->
<g id="node17" class="node"><title>ProblemStatusLog</title>
<ellipse fill="none" stroke="black" cx="2337.22" cy="-234" rx="96.6831" ry="18"/>
<text text-anchor="middle" x="2337.22" y="-230.3" font-family="Times,serif" font-size="14.00">ProblemStatusLog</text>
</g>
<!-- ErrorMaster -->
<g id="node19" class="node"><title>ErrorMaster</title>
<ellipse fill="none" stroke="black" cx="3103.22" cy="-399" rx="69.5877" ry="18"/>
<text text-anchor="middle" x="3103.22" y="-395.3" font-family="Times,serif" font-size="14.00">ErrorMaster</text>
</g>
<!-- Role -->
<g id="node20" class="node"><title>Role</title>
<ellipse fill="none" stroke="black" cx="292.221" cy="-234" rx="31.3957" ry="18"/>
<text text-anchor="middle" x="292.221" y="-230.3" font-family="Times,serif" font-size="14.00">Role</text>
</g>
<!-- Role&#45;&gt;User -->
<g id="edge13" class="edge"><title>Role&#45;&gt;User</title>
<path fill="none" stroke="#304880" d="M261.219,-218.532C236.303,-206.905 201.364,-190.6 175.79,-178.666"/>
<ellipse fill="none" stroke="#304880" cx="265.159" cy="-220.371" rx="4.00002" ry="4.00002"/>
<polygon fill="#304880" stroke="#304880" points="175.55,-178.553 168.391,-170.247 171.019,-176.439 166.488,-174.325 166.488,-174.325 166.488,-174.325 171.019,-176.439 164.585,-178.402 175.55,-178.553 175.55,-178.553"/>
</g>
<!-- Role&#45;&gt;Menuconfiguration -->
<g id="edge14" class="edge"><title>Role&#45;&gt;Menuconfiguration</title>
<path fill="none" stroke="#ab8892" d="M292.221,-207.64C292.221,-202.063 292.221,-196.132 292.221,-190.476"/>
<ellipse fill="none" stroke="#ab8892" cx="292.221" cy="-211.697" rx="4" ry="4"/>
<polygon fill="#ab8892" stroke="#ab8892" points="292.221,-190.104 296.721,-180.104 292.221,-185.104 292.221,-180.104 292.221,-180.104 292.221,-180.104 292.221,-185.104 287.721,-180.104 292.221,-190.104 292.221,-190.104"/>
</g>
<!-- LoadUnload -->
<g id="node21" class="node"><title>LoadUnload</title>
<ellipse fill="none" stroke="black" cx="1164.22" cy="-162" rx="66.0889" ry="18"/>
<text text-anchor="middle" x="1164.22" y="-158.3" font-family="Times,serif" font-size="14.00">LoadUnload</text>
</g>
<!-- Pageauthorization -->
<g id="node22" class="node"><title>Pageauthorization</title>
<ellipse fill="none" stroke="black" cx="436.221" cy="-234" rx="94.7833" ry="18"/>
<text text-anchor="middle" x="436.221" y="-230.3" font-family="Times,serif" font-size="14.00">Pageauthorization</text>
</g>
<!-- Pageauthorization&#45;&gt;Menuconfiguration -->
<g id="edge15" class="edge"><title>Pageauthorization&#45;&gt;Menuconfiguration</title>
<path fill="none" stroke="#56c988" d="M395.877,-213.388C376.832,-204.13 354.098,-193.079 334.78,-183.689"/>
<ellipse fill="none" stroke="#56c988" cx="399.587" cy="-215.192" rx="4.00002" ry="4.00002"/>
<polygon fill="#56c988" stroke="#56c988" points="334.596,-183.599 327.57,-175.18 330.099,-181.413 325.602,-179.227 325.602,-179.227 325.602,-179.227 330.099,-181.413 323.635,-183.274 334.596,-183.599 334.596,-183.599"/>
</g>
<!-- Cnctool -->
<g id="node23" class="node"><title>Cnctool</title>
<ellipse fill="none" stroke="black" cx="722.221" cy="-162" rx="46.5926" ry="18"/>
<text text-anchor="middle" x="722.221" y="-158.3" font-family="Times,serif" font-size="14.00">Cnctool</text>
</g>
<!-- MachineLog -->
<g id="node25" class="node"><title>MachineLog</title>
<ellipse fill="none" stroke="black" cx="1508.22" cy="-90" rx="68.7879" ry="18"/>
<text text-anchor="middle" x="1508.22" y="-86.3" font-family="Times,serif" font-size="14.00">MachineLog</text>
</g>
<!-- Usertype -->
<g id="node26" class="node"><title>Usertype</title>
<ellipse fill="none" stroke="black" cx="79.2209" cy="-306" rx="53.0913" ry="18"/>
<text text-anchor="middle" x="79.2209" y="-302.3" font-family="Times,serif" font-size="14.00">Usertype</text>
</g>
<!-- Usertype&#45;&gt;Page -->
<g id="edge17" class="edge"><title>Usertype&#45;&gt;Page</title>
<path fill="none" stroke="#ca31c9" d="M106.964,-284.118C119.028,-275.038 133.115,-264.435 145.107,-255.408"/>
<ellipse fill="none" stroke="#ca31c9" cx="103.52" cy="-286.71" rx="4.00002" ry="4.00002"/>
<polygon fill="#ca31c9" stroke="#ca31c9" points="145.42,-255.173 156.116,-252.754 149.415,-252.166 153.41,-249.159 153.41,-249.159 153.41,-249.159 149.415,-252.166 150.703,-245.564 145.42,-255.173 145.42,-255.173"/>
</g>
<!-- Usertype&#45;&gt;User -->
<g id="edge16" class="edge"><title>Usertype&#45;&gt;User</title>
<path fill="none" stroke="#50d64b" d="M41.34,-287.077C27.6879,-278.517 13.7919,-266.853 6.22088,-252 -1.04537,-237.745 -2.80809,-229.209 6.22088,-216 27.1246,-185.419 68.4995,-172.481 100.151,-167.009"/>
<ellipse fill="none" stroke="#50d64b" cx="44.9803" cy="-289.232" rx="4.00002" ry="4.00002"/>
<polygon fill="#50d64b" stroke="#50d64b" points="100.165,-167.007 110.734,-169.929 105.106,-166.244 110.048,-165.482 110.048,-165.482 110.048,-165.482 105.106,-166.244 109.361,-161.034 100.165,-167.007 100.165,-167.007"/>
</g>
<!-- HourDetailTimelineReport -->
<g id="node27" class="node"><title>HourDetailTimelineReport</title>
<ellipse fill="none" stroke="black" cx="3324.22" cy="-399" rx="133.776" ry="18"/>
<text text-anchor="middle" x="3324.22" y="-395.3" font-family="Times,serif" font-size="14.00">HourDetailTimelineReport</text>
</g>
<!-- Deliverytype -->
<g id="node28" class="node"><title>Deliverytype</title>
<ellipse fill="none" stroke="black" cx="3546.22" cy="-399" rx="70.3881" ry="18"/>
<text text-anchor="middle" x="3546.22" y="-395.3" font-family="Times,serif" font-size="14.00">Deliverytype</text>
</g>
<!-- Delivery -->
<g id="node52" class="node"><title>Delivery</title>
<ellipse fill="none" stroke="black" cx="3546.22" cy="-306" rx="50.0912" ry="18"/>
<text text-anchor="middle" x="3546.22" y="-302.3" font-family="Times,serif" font-size="14.00">Delivery</text>
</g>
<!-- Deliverytype&#45;&gt;Delivery -->
<g id="edge18" class="edge"><title>Deliverytype&#45;&gt;Delivery</title>
<path fill="none" stroke="#7c2158" d="M3546.22,-372.729C3546.22,-360.725 3546.22,-346.362 3546.22,-334.129"/>
<ellipse fill="none" stroke="#7c2158" cx="3546.22" cy="-376.884" rx="4" ry="4"/>
<polygon fill="#7c2158" stroke="#7c2158" points="3546.22,-334.04 3550.72,-324.04 3546.22,-329.04 3546.22,-324.04 3546.22,-324.04 3546.22,-324.04 3546.22,-329.04 3541.72,-324.04 3546.22,-334.04 3546.22,-334.04"/>
</g>
<!-- MacIdConfig -->
<g id="node29" class="node"><title>MacIdConfig</title>
<ellipse fill="none" stroke="black" cx="3706.22" cy="-399" rx="71.4873" ry="18"/>
<text text-anchor="middle" x="3706.22" y="-395.3" font-family="Times,serif" font-size="14.00">MacIdConfig</text>
</g>
<!-- ConsolidateDatum -->
<g id="node30" class="node"><title>ConsolidateDatum</title>
<ellipse fill="none" stroke="black" cx="1383.22" cy="-162" rx="96.6831" ry="18"/>
<text text-anchor="middle" x="1383.22" y="-158.3" font-family="Times,serif" font-size="14.00">ConsolidateDatum</text>
</g>
<!-- Operatorproductiondetail -->
<g id="node31" class="node"><title>Operatorproductiondetail</title>
<ellipse fill="none" stroke="black" cx="2582.22" cy="-234" rx="129.977" ry="18"/>
<text text-anchor="middle" x="2582.22" y="-230.3" font-family="Times,serif" font-size="14.00">Operatorproductiondetail</text>
</g>
<!-- Plannedmaintanance -->
<g id="node33" class="node"><title>Plannedmaintanance</title>
<ellipse fill="none" stroke="black" cx="895.221" cy="-162" rx="108.581" ry="18"/>
<text text-anchor="middle" x="895.221" y="-158.3" font-family="Times,serif" font-size="14.00">Plannedmaintanance</text>
</g>
<!-- Notification -->
<g id="node34" class="node"><title>Notification</title>
<ellipse fill="none" stroke="black" cx="3861.22" cy="-399" rx="65.7887" ry="18"/>
<text text-anchor="middle" x="3861.22" y="-395.3" font-family="Times,serif" font-size="14.00">Notification</text>
</g>
<!-- Cncoperation&#45;&gt;Operatorworkingdetail -->
<g id="edge21" class="edge"><title>Cncoperation&#45;&gt;Operatorworkingdetail</title>
<path fill="none" stroke="#858084" d="M2752.99,-86.1835C2444.62,-75.3582 1334.36,-36.3821 961.97,-23.3091"/>
<ellipse fill="none" stroke="#858084" cx="2757.08" cy="-86.3269" rx="4" ry="4"/>
<polygon fill="#858084" stroke="#858084" points="961.697,-23.2997 951.861,-18.4515 956.7,-23.1242 951.704,-22.9487 951.704,-22.9487 951.704,-22.9487 956.7,-23.1242 951.546,-27.446 961.697,-23.2997 961.697,-23.2997"/>
</g>
<!-- Cncvendor -->
<g id="node36" class="node"><title>Cncvendor</title>
<ellipse fill="none" stroke="black" cx="2990.22" cy="-18" rx="61.99" ry="18"/>
<text text-anchor="middle" x="2990.22" y="-14.3" font-family="Times,serif" font-size="14.00">Cncvendor</text>
</g>
<!-- Cncoperation&#45;&gt;Cncvendor -->
<g id="edge19" class="edge"><title>Cncoperation&#45;&gt;Cncvendor</title>
<path fill="none" stroke="#cbc213" d="M2874.4,-70.6384C2897.34,-60.4131 2925.81,-47.7187 2948.78,-37.4752"/>
<ellipse fill="none" stroke="#cbc213" cx="2870.55" cy="-72.3543" rx="4.00002" ry="4.00002"/>
<polygon fill="#cbc213" stroke="#cbc213" points="2948.8,-37.4659 2959.77,-37.5037 2953.37,-35.4298 2957.94,-33.3937 2957.94,-33.3937 2957.94,-33.3937 2953.37,-35.4298 2956.11,-29.2837 2948.8,-37.4659 2948.8,-37.4659"/>
</g>
<!-- Machineallocation -->
<g id="node46" class="node"><title>Machineallocation</title>
<ellipse fill="none" stroke="black" cx="2723.22" cy="-18" rx="96.6831" ry="18"/>
<text text-anchor="middle" x="2723.22" y="-14.3" font-family="Times,serif" font-size="14.00">Machineallocation</text>
</g>
<!-- Cncoperation&#45;&gt;Machineallocation -->
<g id="edge20" class="edge"><title>Cncoperation&#45;&gt;Machineallocation</title>
<path fill="none" stroke="#dcf15c" d="M2801.12,-68.5727C2787.55,-59.9338 2771.7,-49.853 2757.86,-41.0461"/>
<ellipse fill="none" stroke="#dcf15c" cx="2804.61" cy="-70.7931" rx="4.00002" ry="4.00002"/>
<polygon fill="#dcf15c" stroke="#dcf15c" points="2757.54,-40.8394 2751.52,-31.6742 2753.32,-38.155 2749.1,-35.4706 2749.1,-35.4706 2749.1,-35.4706 2753.32,-38.155 2746.69,-39.2671 2757.54,-40.8394 2757.54,-40.8394"/>
</g>
<!-- DataLossEntry -->
<g id="node37" class="node"><title>DataLossEntry</title>
<ellipse fill="none" stroke="black" cx="1578.22" cy="-162" rx="80.6858" ry="18"/>
<text text-anchor="middle" x="1578.22" y="-158.3" font-family="Times,serif" font-size="14.00">DataLossEntry</text>
</g>
<!-- Consummablemaintanance -->
<g id="node38" class="node"><title>Consummablemaintanance</title>
<ellipse fill="none" stroke="black" cx="2558.22" cy="-162" rx="137.276" ry="18"/>
<text text-anchor="middle" x="2558.22" y="-158.3" font-family="Times,serif" font-size="14.00">Consummablemaintanance</text>
</g>
<!-- Userslog -->
<g id="node39" class="node"><title>Userslog</title>
<ellipse fill="none" stroke="black" cx="2782.22" cy="-234" rx="51.9908" ry="18"/>
<text text-anchor="middle" x="2782.22" y="-230.3" font-family="Times,serif" font-size="14.00">Userslog</text>
</g>
<!-- MachineDailyLog -->
<g id="node40" class="node"><title>MachineDailyLog</title>
<ellipse fill="none" stroke="black" cx="1770.22" cy="-162" rx="92.8835" ry="18"/>
<text text-anchor="middle" x="1770.22" y="-158.3" font-family="Times,serif" font-size="14.00">MachineDailyLog</text>
</g>
<!-- ApplicationRecord -->
<g id="node41" class="node"><title>ApplicationRecord</title>
<ellipse fill="none" stroke="black" cx="4041.22" cy="-399" rx="96.6831" ry="18"/>
<text text-anchor="middle" x="4041.22" y="-395.3" font-family="Times,serif" font-size="14.00">ApplicationRecord</text>
</g>
<!-- Maintananceentry -->
<g id="node42" class="node"><title>Maintananceentry</title>
<ellipse fill="none" stroke="black" cx="1978.22" cy="-162" rx="96.6831" ry="18"/>
<text text-anchor="middle" x="1978.22" y="-158.3" font-family="Times,serif" font-size="14.00">Maintananceentry</text>
</g>
<!-- Shifttransaction&#45;&gt;Operatorworkingdetail -->
<g id="edge22" class="edge"><title>Shifttransaction&#45;&gt;Operatorworkingdetail</title>
<path fill="none" stroke="#11a95e" d="M469.355,-138.524C450.422,-119.389 430.822,-91.9159 448.221,-72 466.331,-51.2698 615.835,-35.6779 724.6,-26.944"/>
<ellipse fill="none" stroke="#11a95e" cx="472.3" cy="-141.388" rx="4.00002" ry="4.00002"/>
<polygon fill="#11a95e" stroke="#11a95e" points="724.694,-26.9367 735.018,-30.6321 729.678,-26.5414 734.662,-26.1462 734.662,-26.1462 734.662,-26.1462 729.678,-26.5414 734.307,-21.6602 724.694,-26.9367 724.694,-26.9367"/>
</g>
<!-- Shifttransaction&#45;&gt;OperatorAllocation -->
<g id="edge24" class="edge"><title>Shifttransaction&#45;&gt;OperatorAllocation</title>
<path fill="none" stroke="#0eddb3" d="M551.112,-144.766C588.539,-133.895 637.772,-119.595 676.055,-108.476"/>
<ellipse fill="none" stroke="#0eddb3" cx="547.253" cy="-145.887" rx="4.00001" ry="4.00001"/>
<polygon fill="#0eddb3" stroke="#0eddb3" points="676.437,-108.365 687.295,-109.897 681.238,-106.97 686.04,-105.575 686.04,-105.575 686.04,-105.575 681.238,-106.97 684.784,-101.254 676.437,-108.365 676.437,-108.365"/>
</g>
<!-- BreakTime -->
<g id="node54" class="node"><title>BreakTime</title>
<ellipse fill="none" stroke="black" cx="519.221" cy="-90" rx="61.99" ry="18"/>
<text text-anchor="middle" x="519.221" y="-86.3" font-family="Times,serif" font-size="14.00">BreakTime</text>
</g>
<!-- Shifttransaction&#45;&gt;BreakTime -->
<g id="edge23" class="edge"><title>Shifttransaction&#45;&gt;BreakTime</title>
<path fill="none" stroke="#ca403d" d="M503.82,-135.92C505.846,-130.01 508.013,-123.689 510.063,-117.71"/>
<ellipse fill="none" stroke="#ca403d" cx="502.451" cy="-139.913" rx="4.00001" ry="4.00001"/>
<polygon fill="#ca403d" stroke="#ca403d" points="510.113,-117.564 517.613,-109.564 511.735,-112.834 513.357,-108.104 513.357,-108.104 513.357,-108.104 511.735,-112.834 509.1,-106.645 510.113,-117.564 510.113,-117.564"/>
</g>
<!-- Session -->
<g id="node44" class="node"><title>Session</title>
<ellipse fill="none" stroke="black" cx="4202.22" cy="-399" rx="46.2923" ry="18"/>
<text text-anchor="middle" x="4202.22" y="-395.3" font-family="Times,serif" font-size="14.00">Session</text>
</g>
<!-- Tenant&#45;&gt;Cncclient -->
<g id="edge30" class="edge"><title>Tenant&#45;&gt;Cncclient</title>
<path fill="none" stroke="#76f297" d="M2142.04,-294.639C2154.62,-292.042 2168.4,-289.555 2181.22,-288 2584.36,-239.096 2691.54,-304.537 3094.22,-252 3101.95,-250.991 3110.05,-249.575 3117.97,-247.985"/>
<ellipse fill="none" stroke="#76f297" cx="2137.88" cy="-295.522" rx="4.00001" ry="4.00001"/>
<polygon fill="#76f297" stroke="#76f297" points="3118.07,-247.964 3128.78,-250.3 3122.96,-246.931 3127.85,-245.897 3127.85,-245.897 3127.85,-245.897 3122.96,-246.931 3126.92,-241.494 3118.07,-247.964 3118.07,-247.964"/>
</g>
<!-- Tenant&#45;&gt;Operatorworkingdetail -->
<g id="edge42" class="edge"><title>Tenant&#45;&gt;Operatorworkingdetail</title>
<path fill="none" stroke="#d80602" d="M2047.89,-304.456C1821.07,-301.808 899.598,-288.85 776.221,-252 676.983,-222.36 564.528,-153.67 628.221,-72 642.78,-53.3313 693.679,-40.237 741.836,-31.7344"/>
<ellipse fill="none" stroke="#d80602" cx="2051.98" cy="-304.504" rx="4" ry="4"/>
<polygon fill="#d80602" stroke="#d80602" points="741.88,-31.7269 752.495,-34.4778 746.808,-30.8845 751.737,-30.0421 751.737,-30.0421 751.737,-30.0421 746.808,-30.8845 750.978,-25.6064 741.88,-31.7269 741.88,-31.7269"/>
</g>
<!-- Tenant&#45;&gt;Shift -->
<g id="edge29" class="edge"><title>Tenant&#45;&gt;Shift</title>
<path fill="none" stroke="#c17b1f" d="M2047.76,-304.08C1809.48,-299.611 802.867,-279.255 665.221,-252 660.836,-251.132 656.315,-249.905 651.898,-248.502"/>
<ellipse fill="none" stroke="#c17b1f" cx="2051.91" cy="-304.158" rx="4" ry="4"/>
<ellipse fill="#c17b1f" stroke="#c17b1f" cx="647.895" cy="-247.128" rx="4.00001" ry="4.00001"/>
</g>
<!-- Tenant&#45;&gt;User -->
<g id="edge25" class="edge"><title>Tenant&#45;&gt;User</title>
<path fill="none" stroke="#9e88d3" d="M2047.53,-304.564C1759.36,-301.959 337.346,-287.344 252.221,-252 230.735,-243.079 232.067,-230.924 214.221,-216 200.254,-204.32 183.969,-192.216 170.423,-182.528"/>
<ellipse fill="none" stroke="#9e88d3" cx="2051.72" cy="-304.602" rx="4" ry="4"/>
<polygon fill="#9e88d3" stroke="#9e88d3" points="170.13,-182.32 164.57,-172.868 166.05,-179.43 161.969,-176.54 161.969,-176.54 161.969,-176.54 166.05,-179.43 159.368,-180.212 170.13,-182.32 170.13,-182.32"/>
</g>
<!-- Tenant&#45;&gt;Material -->
<g id="edge35" class="edge"><title>Tenant&#45;&gt;Material</title>
<path fill="none" stroke="#408f94" d="M2142.04,-294.667C2154.62,-292.07 2168.41,-289.576 2181.22,-288 2227.69,-282.285 2990.83,-285.807 3023.22,-252 3058.29,-215.398 3029.57,-151.808 3008.83,-116.491"/>
<ellipse fill="none" stroke="#408f94" cx="2137.88" cy="-295.549" rx="4.00001" ry="4.00001"/>
<polygon fill="#408f94" stroke="#408f94" points="3008.71,-116.287 3007.36,-105.404 3006.11,-112.013 3003.52,-107.74 3003.52,-107.74 3003.52,-107.74 3006.11,-112.013 2999.67,-110.076 3008.71,-116.287 3008.71,-116.287"/>
</g>
<!-- Tenant&#45;&gt;ProblemStatusLog -->
<g id="edge44" class="edge"><title>Tenant&#45;&gt;ProblemStatusLog</title>
<path fill="none" stroke="#2f5382" d="M2139.87,-292.801C2178.54,-281.475 2236.47,-264.509 2279.57,-251.884"/>
<ellipse fill="none" stroke="#2f5382" cx="2135.8" cy="-293.995" rx="4.00001" ry="4.00001"/>
<ellipse fill="#2f5382" stroke="#2f5382" cx="2283.6" cy="-250.704" rx="4.00001" ry="4.00001"/>
</g>
<!-- Tenant&#45;&gt;Role -->
<g id="edge26" class="edge"><title>Tenant&#45;&gt;Role</title>
<path fill="none" stroke="#998283" d="M2047.67,-304.011C1767.83,-298.468 418.125,-270.844 332.221,-252 329.706,-251.448 327.15,-250.742 324.61,-249.931"/>
<ellipse fill="none" stroke="#998283" cx="2052.02" cy="-304.097" rx="4" ry="4"/>
<polygon fill="#998283" stroke="#998283" points="324.391,-249.85 316.559,-242.175 319.698,-248.124 315.006,-246.398 315.006,-246.398 315.006,-246.398 319.698,-248.124 313.452,-250.622 324.391,-249.85 324.391,-249.85"/>
</g>
<!-- Tenant&#45;&gt;Cnctool -->
<g id="edge38" class="edge"><title>Tenant&#45;&gt;Cnctool</title>
<path fill="none" stroke="#c50464" d="M2047.94,-303.403C1916.61,-298.897 1552.62,-284.257 1251.22,-252 1039.35,-229.324 984.921,-227.594 777.221,-180 773.598,-179.17 769.867,-178.222 766.136,-177.209"/>
<ellipse fill="none" stroke="#c50464" cx="2052.25" cy="-303.55" rx="4" ry="4"/>
<polygon fill="#c50464" stroke="#c50464" points="765.949,-177.155 757.57,-170.08 761.141,-175.781 756.333,-174.407 756.333,-174.407 756.333,-174.407 761.141,-175.781 755.097,-178.734 765.949,-177.155 765.949,-177.155"/>
</g>
<!-- Tenant&#45;&gt;Menuconfiguration -->
<g id="edge28" class="edge"><title>Tenant&#45;&gt;Menuconfiguration</title>
<path fill="none" stroke="#f59a7e" d="M2047.74,-304.243C1791.85,-300.278 647.415,-280.979 578.221,-252 556.762,-243.013 560.808,-226.835 540.221,-216 511.941,-201.117 435.987,-186.07 375.521,-175.831"/>
<ellipse fill="none" stroke="#f59a7e" cx="2051.76" cy="-304.305" rx="4" ry="4"/>
<polygon fill="#f59a7e" stroke="#f59a7e" points="375.44,-175.818 366.32,-169.729 370.509,-174.992 365.577,-174.167 365.577,-174.167 365.577,-174.167 370.509,-174.992 364.834,-178.605 375.44,-175.818 375.44,-175.818"/>
</g>
<!-- Tenant&#45;&gt;Operatorproductiondetail -->
<g id="edge43" class="edge"><title>Tenant&#45;&gt;Operatorproductiondetail</title>
<path fill="none" stroke="#dc1906" d="M2142.85,-295.255C2155.25,-292.715 2168.73,-290.102 2181.22,-288 2236.62,-278.677 2379.42,-260.304 2478.72,-247.835"/>
<ellipse fill="none" stroke="#dc1906" cx="2138.81" cy="-296.096" rx="4.00001" ry="4.00001"/>
<polygon fill="#dc1906" stroke="#dc1906" points="2478.87,-247.817 2489.35,-251.037 2483.83,-247.195 2488.79,-246.572 2488.79,-246.572 2488.79,-246.572 2483.83,-247.195 2488.23,-242.107 2478.87,-247.817 2478.87,-247.817"/>
</g>
<!-- Tenant&#45;&gt;Plannedmaintanance -->
<g id="edge39" class="edge"><title>Tenant&#45;&gt;Plannedmaintanance</title>
<path fill="none" stroke="#cf292b" d="M2048.88,-301.318C1948.71,-293.661 1714.33,-274.817 1518.22,-252 1291.28,-225.596 1235.32,-212.849 1009.22,-180 1000.66,-178.756 991.74,-177.448 982.825,-176.132"/>
<ellipse fill="none" stroke="#cf292b" cx="2053.02" cy="-301.634" rx="4" ry="4"/>
<polygon fill="#cf292b" stroke="#cf292b" points="982.675,-176.11 973.441,-170.195 977.729,-175.378 972.783,-174.646 972.783,-174.646 972.783,-174.646 977.729,-175.378 972.124,-179.098 982.675,-176.11 982.675,-176.11"/>
</g>
<!-- Tenant&#45;&gt;Cncoperation -->
<g id="edge33" class="edge"><title>Tenant&#45;&gt;Cncoperation</title>
<path fill="none" stroke="#b091e2" d="M2131.83,-287.728C2149.7,-278.032 2171.73,-265.243 2190.22,-252 2209.93,-237.878 2208.74,-225.088 2231.22,-216 2308.98,-184.568 2927.35,-240.705 2985.22,-180 3018.61,-144.975 2952.64,-119.244 2897.39,-104.699"/>
<ellipse fill="none" stroke="#b091e2" cx="2127.97" cy="-289.796" rx="4.00002" ry="4.00002"/>
<polygon fill="#b091e2" stroke="#b091e2" points="2897.27,-104.668 2888.69,-97.8401 2892.42,-103.435 2887.58,-102.201 2887.58,-102.201 2887.58,-102.201 2892.42,-103.435 2886.47,-106.562 2897.27,-104.668 2897.27,-104.668"/>
</g>
<!-- Tenant&#45;&gt;Cncvendor -->
<g id="edge36" class="edge"><title>Tenant&#45;&gt;Cncvendor</title>
<path fill="none" stroke="#214889" d="M2142.04,-294.658C2154.62,-292.061 2168.41,-289.569 2181.22,-288 2228.85,-282.167 3010.06,-285.696 3044.22,-252 3101.23,-195.768 3085.73,-144.731 3052.22,-72 3046.41,-59.3939 3035.96,-48.6715 3025.28,-40.2384"/>
<ellipse fill="none" stroke="#214889" cx="2137.88" cy="-295.541" rx="4.00001" ry="4.00001"/>
<polygon fill="#214889" stroke="#214889" points="3025.19,-40.1713 3019.8,-30.6186 3021.16,-37.2069 3017.13,-34.2424 3017.13,-34.2424 3017.13,-34.2424 3021.16,-37.2069 3014.47,-37.8662 3025.19,-40.1713 3025.19,-40.1713"/>
</g>
<!-- Tenant&#45;&gt;Consummablemaintanance -->
<g id="edge41" class="edge"><title>Tenant&#45;&gt;Consummablemaintanance</title>
<path fill="none" stroke="#e09da7" d="M2097.86,-279.436C2099.05,-259.113 2104.23,-231.592 2122.22,-216 2125.31,-213.322 2320.17,-190.419 2448.31,-175.61"/>
<ellipse fill="none" stroke="#e09da7" cx="2097.71" cy="-283.652" rx="4" ry="4"/>
<polygon fill="#e09da7" stroke="#e09da7" points="2448.64,-175.572 2459.09,-178.895 2453.6,-174.999 2458.57,-174.425 2458.57,-174.425 2458.57,-174.425 2453.6,-174.999 2458.05,-169.955 2448.64,-175.572 2448.64,-175.572"/>
</g>
<!-- Tenant&#45;&gt;Userslog -->
<g id="edge27" class="edge"><title>Tenant&#45;&gt;Userslog</title>
<path fill="none" stroke="#e72984" d="M2142.42,-294.792C2154.91,-292.223 2168.55,-289.712 2181.22,-288 2419.59,-255.794 2484.12,-292.5 2721.22,-252 2725.73,-251.229 2730.39,-250.26 2735.02,-249.177"/>
<ellipse fill="none" stroke="#e72984" cx="2138.31" cy="-295.656" rx="4.00001" ry="4.00001"/>
<polygon fill="#e72984" stroke="#e72984" points="2735.38,-249.089 2746.17,-251.022 2740.22,-247.873 2745.07,-246.657 2745.07,-246.657 2745.07,-246.657 2740.22,-247.873 2743.98,-242.292 2735.38,-249.089 2735.38,-249.089"/>
</g>
<!-- Tenant&#45;&gt;Machineallocation -->
<g id="edge37" class="edge"><title>Tenant&#45;&gt;Machineallocation</title>
<path fill="none" stroke="#3471ae" d="M2109.22,-280.684C2120.45,-257.036 2137.93,-223.597 2150.22,-216 2255.17,-151.152 2614.72,-264.913 2704.22,-180 2740.27,-145.795 2735.63,-82.1828 2729.28,-46.0013"/>
<ellipse fill="none" stroke="#3471ae" cx="2107.5" cy="-284.35" rx="4.00002" ry="4.00002"/>
<polygon fill="#3471ae" stroke="#3471ae" points="2729.27,-45.9637 2731.81,-35.2944 2728.33,-41.0534 2727.39,-36.1432 2727.39,-36.1432 2727.39,-36.1432 2728.33,-41.0534 2722.97,-36.9919 2729.27,-45.9637 2729.27,-45.9637"/>
</g>
<!-- Tenant&#45;&gt;Cncjob -->
<g id="edge32" class="edge"><title>Tenant&#45;&gt;Cncjob</title>
<path fill="none" stroke="#f24c90" d="M2119.26,-283.263C2142.87,-259.425 2180.24,-223.538 2198.22,-216 2308.93,-169.587 2619.03,-201.008 2737.22,-180 2742.26,-179.105 2747.48,-177.934 2752.63,-176.625"/>
<ellipse fill="none" stroke="#f24c90" cx="2116.37" cy="-286.189" rx="4.00002" ry="4.00002"/>
<polygon fill="#f24c90" stroke="#f24c90" points="2752.74,-176.596 2763.57,-178.317 2757.57,-175.285 2762.39,-173.974 2762.39,-173.974 2762.39,-173.974 2757.57,-175.285 2761.21,-169.631 2752.74,-176.596 2752.74,-176.596"/>
</g>
<!-- Operator -->
<g id="node51" class="node"><title>Operator</title>
<ellipse fill="none" stroke="black" cx="838.221" cy="-234" rx="52.7911" ry="18"/>
<text text-anchor="middle" x="838.221" y="-230.3" font-family="Times,serif" font-size="14.00">Operator</text>
</g>
<!-- Tenant&#45;&gt;Operator -->
<g id="edge31" class="edge"><title>Tenant&#45;&gt;Operator</title>
<path fill="none" stroke="#d5e626" d="M2048.62,-302.244C1850.71,-291.249 1117.75,-250.529 899.757,-238.419"/>
<ellipse fill="none" stroke="#d5e626" cx="2052.66" cy="-302.469" rx="4" ry="4"/>
<polygon fill="#d5e626" stroke="#d5e626" points="899.755,-238.419 890.02,-233.371 894.763,-238.141 889.77,-237.864 889.77,-237.864 889.77,-237.864 894.763,-238.141 889.521,-242.357 899.755,-238.419 899.755,-238.419"/>
</g>
<!-- Machine -->
<g id="node53" class="node"><title>Machine</title>
<ellipse fill="none" stroke="black" cx="1578.22" cy="-234" rx="51.1914" ry="18"/>
<text text-anchor="middle" x="1578.22" y="-230.3" font-family="Times,serif" font-size="14.00">Machine</text>
</g>
<!-- Tenant&#45;&gt;Machine -->
<g id="edge34" class="edge"><title>Tenant&#45;&gt;Machine</title>
<path fill="none" stroke="#41f70e" d="M2050.21,-298.537C1954.08,-285.597 1738.37,-256.559 1635.24,-242.676"/>
<ellipse fill="none" stroke="#41f70e" cx="2054.32" cy="-299.09" rx="4.00001" ry="4.00001"/>
<polygon fill="#41f70e" stroke="#41f70e" points="1635.24,-242.675 1625.93,-236.881 1630.28,-242.008 1625.33,-241.341 1625.33,-241.341 1625.33,-241.341 1630.28,-242.008 1624.72,-245.801 1635.24,-242.675 1635.24,-242.675"/>
</g>
<!-- Mainanceentry -->
<g id="node59" class="node"><title>Mainanceentry</title>
<ellipse fill="none" stroke="black" cx="2933.22" cy="-234" rx="81.4863" ry="18"/>
<text text-anchor="middle" x="2933.22" y="-230.3" font-family="Times,serif" font-size="14.00">Mainanceentry</text>
</g>
<!-- Tenant&#45;&gt;Mainanceentry -->
<g id="edge40" class="edge"><title>Tenant&#45;&gt;Mainanceentry</title>
<path fill="none" stroke="#da2d6d" d="M2142.41,-294.69C2154.89,-292.12 2168.54,-289.635 2181.22,-288 2473.46,-250.335 2550.7,-287.423 2843.22,-252 2850.68,-251.096 2858.46,-249.946 2866.18,-248.672"/>
<ellipse fill="none" stroke="#da2d6d" cx="2138.3" cy="-295.557" rx="4.00001" ry="4.00001"/>
<polygon fill="#da2d6d" stroke="#da2d6d" points="2866.41,-248.633 2877.03,-251.37 2871.34,-247.784 2876.27,-246.936 2876.27,-246.936 2876.27,-246.936 2871.34,-247.784 2875.5,-242.501 2866.41,-248.633 2866.41,-248.633"/>
</g>
<!-- Dashboard -->
<g id="node47" class="node"><title>Dashboard</title>
<ellipse fill="none" stroke="black" cx="4327.22" cy="-399" rx="61.1893" ry="18"/>
<text text-anchor="middle" x="4327.22" y="-395.3" font-family="Times,serif" font-size="14.00">Dashboard</text>
</g>
<!-- Cncjob&#45;&gt;Operatorworkingdetail -->
<g id="edge48" class="edge"><title>Cncjob&#45;&gt;Operatorworkingdetail</title>
<path fill="none" stroke="#48805c" d="M2749.07,-151.289C2734.75,-148.57 2718.88,-145.854 2704.22,-144 2051.84,-61.4922 1263.73,-31.2837 963.51,-22.2747"/>
<ellipse fill="none" stroke="#48805c" cx="2753.37" cy="-152.122" rx="4.00001" ry="4.00001"/>
<polygon fill="#48805c" stroke="#48805c" points="963.466,-22.2735 953.604,-17.4779 958.468,-22.1247 953.47,-21.9759 953.47,-21.9759 953.47,-21.9759 958.468,-22.1247 953.336,-26.4739 963.466,-22.2735 963.466,-22.2735"/>
</g>
<!-- Cncjob&#45;&gt;Material -->
<g id="edge46" class="edge"><title>Cncjob&#45;&gt;Material</title>
<path fill="none" stroke="#5948bc" d="M2835.16,-146.807C2867.85,-135.194 2914.03,-118.783 2947.86,-106.763"/>
<ellipse fill="none" stroke="#5948bc" cx="2831.08" cy="-148.258" rx="4.00001" ry="4.00001"/>
<polygon fill="#5948bc" stroke="#5948bc" points="2948.07,-106.689 2959,-107.581 2952.78,-105.015 2957.49,-103.341 2957.49,-103.341 2957.49,-103.341 2952.78,-105.015 2955.98,-99.1006 2948.07,-106.689 2948.07,-106.689"/>
</g>
<!-- Cncjob&#45;&gt;MachineLog -->
<g id="edge47" class="edge"><title>Cncjob&#45;&gt;MachineLog</title>
<path fill="none" stroke="#5c9a7f" d="M2749.89,-151.212C2735.37,-148.432 2719.18,-145.7 2704.22,-144 2322.79,-100.641 2224.7,-125.786 1841.22,-108 1753.36,-103.925 1652.48,-98.6979 1584.99,-95.1225"/>
<ellipse fill="none" stroke="#5c9a7f" cx="2753.84" cy="-151.987" rx="4.00001" ry="4.00001"/>
<polygon fill="#5c9a7f" stroke="#5c9a7f" points="1584.85,-95.1153 1575.11,-90.0916 1579.86,-94.8503 1574.87,-94.5853 1574.87,-94.5853 1574.87,-94.5853 1579.86,-94.8503 1574.63,-99.0789 1584.85,-95.1153 1584.85,-95.1153"/>
</g>
<!-- Cncjob&#45;&gt;Cncoperation -->
<g id="edge45" class="edge"><title>Cncjob&#45;&gt;Cncoperation</title>
<path fill="none" stroke="#c1e7ce" d="M2808.34,-136.827C2811.77,-130.515 2815.48,-123.681 2818.96,-117.266"/>
<ellipse fill="none" stroke="#c1e7ce" cx="2806.33" cy="-140.54" rx="4.00002" ry="4.00002"/>
<polygon fill="#c1e7ce" stroke="#c1e7ce" points="2819.07,-117.064 2827.8,-110.422 2821.46,-112.67 2823.84,-108.275 2823.84,-108.275 2823.84,-108.275 2821.46,-112.67 2819.89,-106.128 2819.07,-117.064 2819.07,-117.064"/>
</g>
<!-- SetAlarmSetting -->
<g id="node50" class="node"><title>SetAlarmSetting</title>
<ellipse fill="none" stroke="black" cx="2181.22" cy="-162" rx="87.9851" ry="18"/>
<text text-anchor="middle" x="2181.22" y="-158.3" font-family="Times,serif" font-size="14.00">SetAlarmSetting</text>
</g>
<!-- Operator&#45;&gt;OperatorAllocation -->
<g id="edge49" class="edge"><title>Operator&#45;&gt;OperatorAllocation</title>
<path fill="none" stroke="#3c9452" d="M777.564,-231.593C738.96,-227.154 691.604,-214.382 666.221,-180 656.718,-167.128 659.098,-158.327 666.221,-144 672.555,-131.259 683.577,-120.763 695.025,-112.569"/>
<ellipse fill="none" stroke="#3c9452" cx="781.679" cy="-232.013" rx="4" ry="4"/>
<polygon fill="#3c9452" stroke="#3c9452" points="695.052,-112.551 705.87,-110.756 699.214,-109.78 703.376,-107.01 703.376,-107.01 703.376,-107.01 699.214,-109.78 700.882,-103.264 695.052,-112.551 695.052,-112.551"/>
</g>
<!-- Machine&#45;&gt;Operatorworkingdetail -->
<g id="edge50" class="edge"><title>Machine&#45;&gt;Operatorworkingdetail</title>
<path fill="none" stroke="#8637eb" d="M1521.26,-227.288C1394.41,-214.506 1099.01,-184.375 1089.22,-180 1067.39,-170.239 1068.48,-158.185 1049.22,-144 993.409,-102.889 923.302,-63.3399 879.879,-40.1034"/>
<ellipse fill="none" stroke="#8637eb" cx="1525.39" cy="-227.703" rx="4" ry="4"/>
<polygon fill="#8637eb" stroke="#8637eb" points="879.862,-40.0941 873.146,-31.4249 875.447,-37.746 871.033,-35.3979 871.033,-35.3979 871.033,-35.3979 875.447,-37.746 868.92,-39.3708 879.862,-40.0941 879.862,-40.0941"/>
</g>
<!-- Machine&#45;&gt;OperatorAllocation -->
<g id="edge61" class="edge"><title>Machine&#45;&gt;OperatorAllocation</title>
<path fill="none" stroke="#07a571" d="M1522.65,-226.025C1496.45,-222.819 1464.75,-219.058 1436.22,-216 1267.54,-197.916 1212.75,-245.396 1056.22,-180 1033.22,-170.392 1035.74,-154.685 1013.22,-144 958.668,-118.115 892.392,-104.87 838.348,-98.0933"/>
<ellipse fill="none" stroke="#07a571" cx="1526.63" cy="-226.513" rx="4.00001" ry="4.00001"/>
<polygon fill="#07a571" stroke="#07a571" points="838.334,-98.0916 828.94,-92.4336 833.369,-97.4966 828.405,-96.9017 828.405,-96.9017 828.405,-96.9017 833.369,-97.4966 827.869,-101.37 838.334,-98.0916 838.334,-98.0916"/>
</g>
<!-- Machine&#45;&gt;LoadUnload -->
<g id="edge62" class="edge"><title>Machine&#45;&gt;LoadUnload</title>
<path fill="none" stroke="#d0c9b0" d="M1523.39,-225.193C1457.09,-215.547 1342.21,-198.173 1244.22,-180 1237.65,-178.782 1230.8,-177.438 1223.99,-176.055"/>
<ellipse fill="none" stroke="#d0c9b0" cx="1527.66" cy="-225.813" rx="4.00001" ry="4.00001"/>
<polygon fill="#d0c9b0" stroke="#d0c9b0" points="1223.87,-176.03 1214.98,-169.604 1218.97,-175.021 1214.07,-174.012 1214.07,-174.012 1214.07,-174.012 1218.97,-175.021 1213.16,-178.419 1223.87,-176.03 1223.87,-176.03"/>
</g>
<!-- Machine&#45;&gt;Cnctool -->
<g id="edge56" class="edge"><title>Machine&#45;&gt;Cnctool</title>
<path fill="none" stroke="#f706aa" d="M1519.48,-229.908C1346.99,-220.718 849.525,-193.376 777.221,-180 773.351,-179.284 769.371,-178.386 765.405,-177.379"/>
<ellipse fill="none" stroke="#f706aa" cx="1523.7" cy="-230.132" rx="4" ry="4"/>
<polygon fill="#f706aa" stroke="#f706aa" points="765.291,-177.348 756.845,-170.355 760.471,-176.021 755.65,-174.694 755.65,-174.694 755.65,-174.694 760.471,-176.021 754.456,-179.032 765.291,-177.348 765.291,-177.348"/>
</g>
<!-- Machine&#45;&gt;MachineLog -->
<g id="edge55" class="edge"><title>Machine&#45;&gt;MachineLog</title>
<path fill="none" stroke="#1a395b" d="M1523.47,-225.206C1438.84,-212.9 1285.11,-189.4 1277.22,-180 1230.29,-124.088 1347.32,-103.19 1431.4,-95.4577"/>
<ellipse fill="none" stroke="#1a395b" cx="1527.48" cy="-225.787" rx="4.00001" ry="4.00001"/>
<polygon fill="#1a395b" stroke="#1a395b" points="1431.51,-95.4478 1441.87,-99.0614 1436.49,-95.0131 1441.47,-94.5785 1441.47,-94.5785 1441.47,-94.5785 1436.49,-95.0131 1441.08,-90.0955 1431.51,-95.4478 1431.51,-95.4478"/>
</g>
<!-- Machine&#45;&gt;ConsolidateDatum -->
<g id="edge57" class="edge"><title>Machine&#45;&gt;ConsolidateDatum</title>
<path fill="none" stroke="#e74fb4" d="M1535.76,-217.756C1506.17,-207.135 1466.53,-192.905 1435.07,-181.614"/>
<ellipse fill="none" stroke="#e74fb4" cx="1539.59" cy="-219.134" rx="4.00001" ry="4.00001"/>
<polygon fill="#e74fb4" stroke="#e74fb4" points="1435.01,-181.59 1427.12,-173.976 1430.3,-179.901 1425.59,-178.211 1425.59,-178.211 1425.59,-178.211 1430.3,-179.901 1424.07,-182.447 1435.01,-181.59 1435.01,-181.59"/>
</g>
<!-- Machine&#45;&gt;Plannedmaintanance -->
<g id="edge53" class="edge"><title>Machine&#45;&gt;Plannedmaintanance</title>
<path fill="none" stroke="#37343e" d="M1522.97,-225.953C1496.71,-222.715 1464.87,-218.948 1436.22,-216 1250.73,-196.915 1203.53,-200.771 1018.22,-180 1007.12,-178.756 995.472,-177.318 983.956,-175.817"/>
<ellipse fill="none" stroke="#37343e" cx="1526.96" cy="-226.448" rx="4.00001" ry="4.00001"/>
<polygon fill="#37343e" stroke="#37343e" points="983.799,-175.797 974.475,-170.024 978.842,-175.141 973.885,-174.485 973.885,-174.485 973.885,-174.485 978.842,-175.141 973.295,-178.946 983.799,-175.797 983.799,-175.797"/>
</g>
<!-- Machine&#45;&gt;DataLossEntry -->
<g id="edge58" class="edge"><title>Machine&#45;&gt;DataLossEntry</title>
<path fill="none" stroke="#5a3f7f" d="M1578.22,-207.64C1578.22,-202.063 1578.22,-196.132 1578.22,-190.476"/>
<ellipse fill="none" stroke="#5a3f7f" cx="1578.22" cy="-211.697" rx="4" ry="4"/>
<polygon fill="#5a3f7f" stroke="#5a3f7f" points="1578.22,-190.104 1582.72,-180.104 1578.22,-185.104 1578.22,-180.104 1578.22,-180.104 1578.22,-180.104 1578.22,-185.104 1573.72,-180.104 1578.22,-190.104 1578.22,-190.104"/>
</g>
<!-- Machine&#45;&gt;Consummablemaintanance -->
<g id="edge51" class="edge"><title>Machine&#45;&gt;Consummablemaintanance</title>
<path fill="none" stroke="#d06c05" d="M1637,-230.219C1772.8,-223.58 2118.76,-205.444 2407.22,-180 2421.21,-178.766 2435.9,-177.311 2450.41,-175.779"/>
<ellipse fill="none" stroke="#d06c05" cx="1632.75" cy="-230.426" rx="4" ry="4"/>
<polygon fill="#d06c05" stroke="#d06c05" points="2450.47,-175.773 2460.89,-179.183 2455.44,-175.241 2460.41,-174.709 2460.41,-174.709 2460.41,-174.709 2455.44,-175.241 2459.93,-170.234 2450.47,-175.773 2450.47,-175.773"/>
</g>
<!-- Machine&#45;&gt;MachineDailyLog -->
<g id="edge60" class="edge"><title>Machine&#45;&gt;MachineDailyLog</title>
<path fill="none" stroke="#b36c83" d="M1620.44,-217.607C1649.41,-207.044 1688.04,-192.962 1718.81,-181.745"/>
<ellipse fill="none" stroke="#b36c83" cx="1616.3" cy="-219.115" rx="4.00001" ry="4.00001"/>
<polygon fill="#b36c83" stroke="#b36c83" points="1719.1,-181.637 1730.04,-182.439 1723.8,-179.924 1728.5,-178.211 1728.5,-178.211 1728.5,-178.211 1723.8,-179.924 1726.96,-173.983 1719.1,-181.637 1719.1,-181.637"/>
</g>
<!-- Machine&#45;&gt;Maintananceentry -->
<g id="edge52" class="edge"><title>Machine&#45;&gt;Maintananceentry</title>
<path fill="none" stroke="#269c63" d="M1631.38,-223.697C1700.32,-211.633 1821.08,-190.499 1900.36,-176.626"/>
<ellipse fill="none" stroke="#269c63" cx="1627.27" cy="-224.417" rx="4.00001" ry="4.00001"/>
<polygon fill="#269c63" stroke="#269c63" points="1900.45,-176.611 1911.07,-179.319 1905.37,-175.749 1910.3,-174.887 1910.3,-174.887 1910.3,-174.887 1905.37,-175.749 1909.52,-170.454 1900.45,-176.611 1900.45,-176.611"/>
</g>
<!-- Machine&#45;&gt;Machineallocation -->
<g id="edge54" class="edge"><title>Machine&#45;&gt;Machineallocation</title>
<path fill="none" stroke="#23694a" d="M1637.35,-231.372C1810.31,-226.287 2307.31,-209.274 2374.22,-180 2395.53,-170.675 2392.64,-156.56 2412.22,-144 2492.12,-92.7537 2596.47,-56.0621 2661.67,-36.1843"/>
<ellipse fill="none" stroke="#23694a" cx="1633.12" cy="-231.495" rx="4" ry="4"/>
<polygon fill="#23694a" stroke="#23694a" points="2661.82,-36.14 2672.69,-37.5651 2666.61,-34.6981 2671.4,-33.2563 2671.4,-33.2563 2671.4,-33.2563 2666.61,-34.6981 2670.1,-28.9474 2661.82,-36.14 2661.82,-36.14"/>
</g>
<!-- Machine&#45;&gt;SetAlarmSetting -->
<g id="edge63" class="edge"><title>Machine&#45;&gt;SetAlarmSetting</title>
<path fill="none" stroke="#ab68ef" d="M1635.8,-228.274C1729.87,-220.261 1922.25,-202.649 2084.22,-180 2092.11,-178.897 2100.33,-177.634 2108.51,-176.303"/>
<ellipse fill="none" stroke="#ab68ef" cx="1631.55" cy="-228.635" rx="4" ry="4"/>
<polygon fill="#ab68ef" stroke="#ab68ef" points="2108.58,-176.292 2119.18,-179.094 2113.51,-175.473 2118.45,-174.655 2118.45,-174.655 2118.45,-174.655 2113.51,-175.473 2117.71,-170.215 2108.58,-176.292 2108.58,-176.292"/>
</g>
<!-- Alarm -->
<g id="node55" class="node"><title>Alarm</title>
<ellipse fill="none" stroke="black" cx="2326.22" cy="-162" rx="38.9931" ry="18"/>
<text text-anchor="middle" x="2326.22" y="-158.3" font-family="Times,serif" font-size="14.00">Alarm</text>
</g>
<!-- Machine&#45;&gt;Alarm -->
<g id="edge59" class="edge"><title>Machine&#45;&gt;Alarm</title>
<path fill="none" stroke="#b264aa" d="M1637.95,-233.762C1759.77,-234.163 2045.08,-229.199 2278.22,-180 2281.46,-179.315 2284.79,-178.467 2288.1,-177.517"/>
<ellipse fill="none" stroke="#b264aa" cx="1633.82" cy="-233.744" rx="4" ry="4"/>
<polygon fill="#b264aa" stroke="#b264aa" points="2288.36,-177.434 2299.25,-178.716 2293.13,-175.929 2297.9,-174.424 2297.9,-174.424 2297.9,-174.424 2293.13,-175.929 2296.54,-170.133 2288.36,-177.434 2288.36,-177.434"/>
</g>
<!-- MachineShiftReport -->
<g id="node57" class="node"><title>MachineShiftReport</title>
<ellipse fill="none" stroke="black" cx="4511.22" cy="-399" rx="104.782" ry="18"/>
<text text-anchor="middle" x="4511.22" y="-395.3" font-family="Times,serif" font-size="14.00">MachineShiftReport</text>
</g>
<!-- Nodetest -->
<g id="node58" class="node"><title>Nodetest</title>
<ellipse fill="none" stroke="black" cx="4688.22" cy="-399" rx="53.8905" ry="18"/>
<text text-anchor="middle" x="4688.22" y="-395.3" font-family="Times,serif" font-size="14.00">Nodetest</text>
</g>
</g>
</svg>
